# xmcd CD database file
#
# Track frame offsets:
#	150
#	13584
#	31709
#	43720
#	63447
#	78993
#	94623
#	108192
#	122168
#	134682
#	153032
#	162802
#	173510
#	209122
#	226634
#	240801
#	251584
#	264119
#	273946
#	291650
#	303481
#	313326
#	331574
#
# Disc length: 4586 seconds
#
# Revision: 1
# Processed by: cddbd v1.5.2PL0 Copyright (c) Steve Scherf et al.
# Submitted via: CDex 1.70beta2
#
DISCID=2811e817
DTITLE=Orchestra Wörgl - 322 - Swinging Jazz
DYEAR=2002
DGENRE=Jazz
TTITLE0=Go, Daddy
TTITLE1=Look ahead
TTITLE2=Bill Bailiy
TTITLE3=Mercy, Mercy, Mercy
TTITLE4=Cantalupe Island
TTITLE5=Peter Goun
TTITLE6=Duke Ellington
TTITLE7=Nobody
TTITLE8=Caravan
TTITLE9=Smooth Operator
TTITLE10=Mambo Jumbo
TTITLE11=You and me
TTITLE12=Take Five
TTITLE13=Over the Rainbow
TTITLE14=Caldonia
TTITLE15=Waterloo
TTITLE16=Hang on Sloopy
TTITLE17=Blues Svede Sh.
TTITLE18=Feeling all right
TTITLE19=Whenn the saints
TTITLE20=Jump, Jive
TTITLE21=Look ahead (Version 2)
TTITLE22=Whenn the saints (Live-Version)
EXTD=YEAR: 2002
EXTT0=
EXTT1=
EXTT2=
EXTT3=
EXTT4=
EXTT5=
EXTT6=
EXTT7=
EXTT8=
EXTT9=
EXTT10=
EXTT11=
EXTT12=
EXTT13=
EXTT14=
EXTT15=
EXTT16=
EXTT17=
EXTT18=
EXTT19=
EXTT20=
EXTT21=
EXTT22=
PLAYORDER=
